<svg width="62" height="16" viewBox="0 0 62 16" fill="none" xmlns="http://www.w3.org/2000/svg">
<path d="M13.38 6.28H10.6L9.84 9.44H12.48V11.12H9.44L8.5 15H6.7L7.66 11.12H4.76L3.82 15H2.02L3 11.12H0.74V9.44H3.38L4.14 6.28H1.64V4.72H4.54L5.48 0.799999H7.28L6.32 4.72H9.2L10.16 0.799999H11.96L10.98 4.72H13.38V6.28ZM8.06 9.44L8.82 6.28H5.92L5.16 9.44H8.06ZM25.6611 13.24C24.4611 14.48 23.0811 15.1 21.5211 15.1C20.5744 15.1 19.6944 14.9067 18.8811 14.52C18.0678 14.12 17.3611 13.5867 16.7611 12.92C16.1611 12.2533 15.6878 11.48 15.3411 10.6C15.0078 9.72 14.8411 8.8 14.8411 7.84C14.8411 6.88 15.0078 5.96667 15.3411 5.1C15.6878 4.23333 16.1611 3.47333 16.7611 2.82C17.3611 2.16667 18.0744 1.65333 18.9011 1.28C19.7278 0.893333 20.6278 0.699999 21.6011 0.699999C22.9611 0.699999 24.1011 0.986666 25.0211 1.56C25.9411 2.12 26.6344 2.86667 27.1011 3.8L25.3811 5.04C24.9944 4.26667 24.4611 3.68667 23.7811 3.3C23.1011 2.91333 22.3544 2.72 21.5411 2.72C20.8744 2.72 20.2678 2.86667 19.7211 3.16C19.1744 3.44 18.7078 3.82 18.3211 4.3C17.9344 4.76667 17.6344 5.31333 17.4211 5.94C17.2211 6.56667 17.1211 7.22 17.1211 7.9C17.1211 8.62 17.2344 9.29333 17.4611 9.92C17.7011 10.5467 18.0211 11.0933 18.4211 11.56C18.8344 12.0267 19.3211 12.4 19.8811 12.68C20.4411 12.9467 21.0478 13.08 21.7011 13.08C22.4211 13.08 23.1078 12.9133 23.7611 12.58C24.4278 12.2467 25.0611 11.72 25.6611 11V9.48H22.6811V7.82H27.5411V15H25.6611V13.24ZM30.0961 15V0.799999H39.5561V2.78H32.3361V7.02H38.3761V8.88H32.3361V15H30.0961ZM40.1945 15C40.1945 14.44 40.2412 13.92 40.3345 13.44C40.4279 12.96 40.5945 12.5133 40.8345 12.1C41.0745 11.6733 41.4012 11.2733 41.8145 10.9C42.2279 10.5133 42.7612 10.14 43.4145 9.78C43.8812 9.52667 44.3212 9.29333 44.7345 9.08C45.1479 8.86667 45.5079 8.66 45.8145 8.46C46.1345 8.24667 46.3879 8.02667 46.5745 7.8C46.7612 7.56 46.8545 7.28667 46.8545 6.98C46.8545 6.55333 46.6679 6.17333 46.2945 5.84C45.9345 5.49333 45.4079 5.32 44.7145 5.32C44.3545 5.32 44.0212 5.37333 43.7145 5.48C43.4212 5.57333 43.1479 5.7 42.8945 5.86C42.6545 6.00667 42.4412 6.17333 42.2545 6.36C42.0679 6.54667 41.9012 6.72667 41.7545 6.9L40.3545 5.28C40.4879 5.13333 40.6945 4.95333 40.9745 4.74C41.2679 4.51333 41.6145 4.3 42.0145 4.1C42.4279 3.9 42.8945 3.73333 43.4145 3.6C43.9345 3.45333 44.5012 3.38 45.1145 3.38C45.7545 3.38 46.3279 3.46667 46.8345 3.64C47.3545 3.8 47.7879 4.02667 48.1345 4.32C48.4945 4.61333 48.7679 4.96667 48.9545 5.38C49.1412 5.78 49.2345 6.21333 49.2345 6.68C49.2345 7.17333 49.1345 7.61333 48.9345 8C48.7345 8.38667 48.4879 8.72667 48.1945 9.02C47.9012 9.31333 47.5812 9.56667 47.2345 9.78C46.8879 9.98 46.5679 10.1533 46.2745 10.3C45.9945 10.4333 45.6745 10.5933 45.3145 10.78C44.9679 10.9533 44.6279 11.16 44.2945 11.4C43.9612 11.6267 43.6612 11.8733 43.3945 12.14C43.1279 12.4067 42.9412 12.7 42.8345 13.02H49.4545V15H40.1945ZM61.6311 9.14C61.6311 10.02 61.4978 10.8333 61.2311 11.58C60.9778 12.3133 60.6178 12.9533 60.1511 13.5C59.6978 14.0333 59.1578 14.4533 58.5311 14.76C57.9178 15.0533 57.2444 15.2 56.5111 15.2C55.7778 15.2 55.0978 15.0533 54.4711 14.76C53.8444 14.4533 53.3044 14.0333 52.8511 13.5C52.3978 12.9533 52.0378 12.3133 51.7711 11.58C51.5178 10.8333 51.3911 10.02 51.3911 9.14C51.3911 8.26 51.5178 7.45333 51.7711 6.72C52.0378 5.97333 52.3978 5.33333 52.8511 4.8C53.3044 4.25333 53.8444 3.82667 54.4711 3.52C55.0978 3.21333 55.7778 3.06 56.5111 3.06C57.2444 3.06 57.9178 3.21333 58.5311 3.52C59.1578 3.82667 59.6978 4.25333 60.1511 4.8C60.6178 5.33333 60.9778 5.97333 61.2311 6.72C61.4978 7.45333 61.6311 8.26 61.6311 9.14ZM59.3911 9.14C59.3911 8.54 59.3178 7.99333 59.1711 7.5C59.0378 7.00667 58.8378 6.58 58.5711 6.22C58.3178 5.86 58.0111 5.58667 57.6511 5.4C57.3044 5.2 56.9244 5.1 56.5111 5.1C56.0711 5.1 55.6711 5.2 55.3111 5.4C54.9644 5.58667 54.6578 5.86 54.3911 6.22C54.1378 6.58 53.9378 7.00667 53.7911 7.5C53.6578 7.99333 53.5911 8.54 53.5911 9.14C53.5911 9.74 53.6578 10.2867 53.7911 10.78C53.9378 11.2733 54.1378 11.7 54.3911 12.06C54.6578 12.4067 54.9644 12.68 55.3111 12.88C55.6711 13.0667 56.0711 13.16 56.5111 13.16C56.9244 13.16 57.3044 13.0667 57.6511 12.88C58.0111 12.68 58.3178 12.4067 58.5711 12.06C58.8378 11.7 59.0378 11.2733 59.1711 10.78C59.3178 10.2867 59.3911 9.74 59.3911 9.14Z" fill="black"/>
</svg>
