<svg width="72" height="17" viewBox="0 0 72 17" fill="none" xmlns="http://www.w3.org/2000/svg">
<path d="M7.56 3.146C8.448 3.146 9.294 3.302 10.098 3.614C10.902 3.926 11.61 4.376 12.222 4.964C12.834 5.54 13.32 6.254 13.68 7.106C14.052 7.958 14.238 8.924 14.238 10.004C14.238 10.172 14.226 10.4 14.202 10.688C14.19 10.964 14.154 11.258 14.094 11.57C14.034 11.882 13.944 12.2 13.824 12.524C13.704 12.848 13.542 13.142 13.338 13.406C13.134 13.67 12.882 13.88 12.582 14.036C12.282 14.204 11.922 14.288 11.502 14.288C11.19 14.288 10.932 14.24 10.728 14.144C10.524 14.06 10.362 13.946 10.242 13.802C10.122 13.658 10.032 13.496 9.972 13.316C9.924 13.124 9.888 12.932 9.864 12.74C9.516 13.112 9.072 13.418 8.532 13.658C8.004 13.886 7.428 14 6.804 14C5.916 14 5.238 13.766 4.77 13.298C4.302 12.83 4.068 12.236 4.068 11.516C4.068 11.036 4.164 10.634 4.356 10.31C4.56 9.974 4.818 9.71 5.13 9.518C5.454 9.314 5.814 9.17 6.21 9.086C6.618 9.002 7.02 8.96 7.416 8.96C7.92 8.96 8.358 9.008 8.73 9.104C9.102 9.2 9.378 9.284 9.558 9.356C9.558 8.996 9.528 8.666 9.468 8.366C9.408 8.066 9.294 7.808 9.126 7.592C8.97 7.376 8.754 7.208 8.478 7.088C8.202 6.968 7.854 6.908 7.434 6.908C6.942 6.908 6.486 6.98 6.066 7.124C5.658 7.268 5.298 7.466 4.986 7.718L4.59 6.638C5.034 6.35 5.508 6.128 6.012 5.972C6.516 5.816 7.05 5.738 7.614 5.738C8.346 5.738 8.922 5.858 9.342 6.098C9.774 6.326 10.092 6.62 10.296 6.98C10.512 7.34 10.644 7.742 10.692 8.186C10.752 8.63 10.782 9.056 10.782 9.464V11.408C10.782 11.672 10.788 11.924 10.8 12.164C10.824 12.392 10.866 12.596 10.926 12.776C10.986 12.956 11.076 13.1 11.196 13.208C11.316 13.304 11.478 13.352 11.682 13.352C12.018 13.352 12.294 13.232 12.51 12.992C12.738 12.74 12.912 12.44 13.032 12.092C13.152 11.732 13.236 11.36 13.284 10.976C13.332 10.58 13.356 10.244 13.356 9.968C13.356 9.116 13.212 8.324 12.924 7.592C12.636 6.86 12.234 6.23 11.718 5.702C11.202 5.162 10.584 4.742 9.864 4.442C9.144 4.13 8.358 3.974 7.506 3.974C6.666 3.974 5.892 4.124 5.184 4.424C4.476 4.712 3.858 5.12 3.33 5.648C2.814 6.164 2.406 6.782 2.106 7.502C1.818 8.222 1.674 9.008 1.674 9.86C1.674 10.676 1.812 11.444 2.088 12.164C2.364 12.884 2.748 13.514 3.24 14.054C3.744 14.594 4.344 15.02 5.04 15.332C5.736 15.644 6.504 15.8 7.344 15.8C7.908 15.8 8.4 15.734 8.82 15.602C9.252 15.482 9.69 15.32 10.134 15.116L10.422 15.908C9.918 16.148 9.408 16.328 8.892 16.448C8.376 16.568 7.854 16.628 7.326 16.628C6.426 16.628 5.58 16.46 4.788 16.124C3.996 15.8 3.3 15.338 2.7 14.738C2.112 14.138 1.644 13.424 1.296 12.596C0.96 11.768 0.792 10.856 0.792 9.86C0.792 8.816 0.978 7.88 1.35 7.052C1.722 6.212 2.22 5.504 2.844 4.928C3.468 4.352 4.188 3.914 5.004 3.614C5.82 3.302 6.672 3.146 7.56 3.146ZM8.532 12.542C8.928 12.35 9.192 12.122 9.324 11.858C9.468 11.582 9.54 11.3 9.54 11.012V10.328C9.372 10.292 9.102 10.22 8.73 10.112C8.358 10.004 7.92 9.95 7.416 9.95C6.828 9.95 6.324 10.064 5.904 10.292C5.496 10.52 5.292 10.91 5.292 11.462C5.292 11.882 5.436 12.23 5.724 12.506C6.012 12.782 6.408 12.92 6.912 12.92C7.176 12.92 7.452 12.884 7.74 12.812C8.028 12.74 8.292 12.65 8.532 12.542ZM25.5559 12.416C24.4759 13.532 23.2339 14.09 21.8299 14.09C20.9779 14.09 20.1859 13.916 19.4539 13.568C18.7219 13.208 18.0859 12.728 17.5459 12.128C17.0059 11.528 16.5799 10.832 16.2679 10.04C15.9679 9.248 15.8179 8.42 15.8179 7.556C15.8179 6.692 15.9679 5.87 16.2679 5.09C16.5799 4.31 17.0059 3.626 17.5459 3.038C18.0859 2.45 18.7279 1.988 19.4719 1.652C20.2159 1.304 21.0259 1.13 21.9019 1.13C23.1259 1.13 24.1519 1.388 24.9799 1.904C25.8079 2.408 26.4319 3.08 26.8519 3.92L25.3039 5.036C24.9559 4.34 24.4759 3.818 23.8639 3.47C23.2519 3.122 22.5799 2.948 21.8479 2.948C21.2479 2.948 20.7019 3.08 20.2099 3.344C19.7179 3.596 19.2979 3.938 18.9499 4.37C18.6019 4.79 18.3319 5.282 18.1399 5.846C17.9599 6.41 17.8699 6.998 17.8699 7.61C17.8699 8.258 17.9719 8.864 18.1759 9.428C18.3919 9.992 18.6799 10.484 19.0399 10.904C19.4119 11.324 19.8499 11.66 20.3539 11.912C20.8579 12.152 21.4039 12.272 21.9919 12.272C22.6399 12.272 23.2579 12.122 23.8459 11.822C24.4459 11.522 25.0159 11.048 25.5559 10.4V9.032H22.8739V7.538H27.2479V14H25.5559V12.416ZM29.8354 14V6.35H28.5754V4.82H29.8354V4.442C29.8354 3.278 30.1054 2.36 30.6454 1.688C31.1854 1.016 31.9174 0.68 32.8414 0.68C33.2254 0.68 33.6034 0.734 33.9754 0.842C34.3474 0.937999 34.7014 1.076 35.0374 1.256L34.6054 2.732C34.4254 2.624 34.2094 2.534 33.9574 2.462C33.7174 2.39 33.4834 2.354 33.2554 2.354C32.7874 2.354 32.4274 2.528 32.1754 2.876C31.9354 3.224 31.8154 3.728 31.8154 4.388V4.82H34.2274V6.35H31.8154V14H29.8354ZM42.5694 12.218V14H35.6934V12.218H38.2494V5.936C38.1414 6.08 37.9734 6.23 37.7454 6.386C37.5174 6.542 37.2654 6.686 36.9894 6.818C36.7134 6.95 36.4254 7.064 36.1254 7.16C35.8254 7.244 35.5614 7.286 35.3334 7.286V5.432C35.5734 5.432 35.8494 5.36 36.1614 5.216C36.4854 5.072 36.7914 4.904 37.0794 4.712C37.3794 4.52 37.6374 4.328 37.8534 4.136C38.0814 3.944 38.2134 3.806 38.2494 3.722H40.2834V12.218H42.5694ZM43.6081 8.15C43.6081 7.538 43.7281 6.962 43.9681 6.422C44.2081 5.882 44.5321 5.414 44.9401 5.018C45.3601 4.61 45.8521 4.292 46.4161 4.064C46.9801 3.836 47.5861 3.722 48.2341 3.722C48.9301 3.722 49.5661 3.854 50.1421 4.118C50.7181 4.37 51.2101 4.742 51.6181 5.234C52.0261 5.714 52.3381 6.308 52.5541 7.016C52.7821 7.712 52.8961 8.504 52.8961 9.392C52.8961 10.616 52.7761 11.69 52.5361 12.614C52.3081 13.526 51.9841 14.288 51.5641 14.9C51.1441 15.524 50.6281 15.992 50.0161 16.304C49.4161 16.616 48.7501 16.772 48.0181 16.772C47.2021 16.772 46.4521 16.586 45.7681 16.214C45.0961 15.842 44.5501 15.314 44.1301 14.63L45.3001 13.406C45.5761 13.91 45.9541 14.306 46.4341 14.594C46.9261 14.894 47.4661 15.044 48.0541 15.044C48.9541 15.044 49.6681 14.666 50.1961 13.91C50.7361 13.142 51.0181 12.068 51.0421 10.688C50.7901 11.228 50.3941 11.654 49.8541 11.966C49.3261 12.278 48.7201 12.434 48.0361 12.434C47.4121 12.434 46.8301 12.326 46.2901 12.11C45.7501 11.882 45.2821 11.576 44.8861 11.192C44.4901 10.808 44.1781 10.358 43.9501 9.842C43.7221 9.314 43.6081 8.75 43.6081 8.15ZM48.2161 5.414C47.8441 5.414 47.4901 5.486 47.1541 5.63C46.8301 5.774 46.5421 5.972 46.2901 6.224C46.0501 6.476 45.8581 6.77 45.7141 7.106C45.5701 7.43 45.4981 7.778 45.4981 8.15C45.4981 8.522 45.5701 8.87 45.7141 9.194C45.8581 9.518 46.0501 9.806 46.2901 10.058C46.5421 10.298 46.8301 10.49 47.1541 10.634C47.4901 10.778 47.8441 10.85 48.2161 10.85C48.5881 10.85 48.9361 10.778 49.2601 10.634C49.5961 10.49 49.8841 10.298 50.1241 10.058C50.3761 9.806 50.5741 9.518 50.7181 9.194C50.8621 8.87 50.9341 8.522 50.9341 8.15C50.9341 7.778 50.8621 7.43 50.7181 7.106C50.5741 6.77 50.3761 6.476 50.1241 6.224C49.8841 5.972 49.5961 5.774 49.2601 5.63C48.9361 5.486 48.5881 5.414 48.2161 5.414ZM54.6577 15.782V14H61.3537V15.782H54.6577ZM63.6259 0.86H65.6059V11.282C65.6059 11.63 65.6959 11.906 65.8759 12.11C66.0559 12.302 66.3079 12.398 66.6319 12.398C66.7639 12.398 66.9139 12.374 67.0819 12.326C67.2619 12.278 67.4299 12.224 67.5859 12.164L67.8739 13.712C67.5859 13.844 67.2439 13.946 66.8479 14.018C66.4519 14.102 66.0979 14.144 65.7859 14.144C65.1019 14.144 64.5679 13.958 64.1839 13.586C63.8119 13.214 63.6259 12.686 63.6259 12.002V0.86ZM69.022 14V4.586H71.002V14H69.022ZM69.022 3.038V0.86H71.002V3.038H69.022Z" fill="black"/>
</svg>
