<svg width="19" height="19" viewBox="0 0 19 19" fill="none" xmlns="http://www.w3.org/2000/svg">
<path d="M18.4114 14.3128L18.9384 15.3779C19.0831 15.6711 18.9644 16.0274 18.6712 16.1721L16.2403 17.3931C15.6465 17.69 14.9191 17.4376 14.6371 16.8327L12.3101 11.8746H7.12555C6.53547 11.8746 6.03445 11.4404 5.9491 10.854C4.69099 2.05118 4.76521 2.59672 4.75037 2.37405C4.75037 1.02319 5.87487 -0.0604677 7.2406 0.00262181C8.47644 0.0582891 9.46734 1.07514 9.50074 2.31096C9.53414 3.53193 8.63973 4.55249 7.47441 4.72321L7.64513 5.93675H12.4697C12.7963 5.93675 13.0635 6.20395 13.0635 6.53053V7.7181C13.0635 8.04468 12.7963 8.31189 12.4697 8.31189H7.98656L8.15727 9.49946H13.0635C13.5237 9.49946 13.9431 9.76666 14.1398 10.1823L16.2737 14.7248L17.6172 14.0456C17.9104 13.8972 18.2667 14.0196 18.4114 14.3128ZM11.5568 13.0622H10.6475C10.358 15.0736 8.62489 16.6249 6.53176 16.6249C4.23822 16.6249 2.37518 14.7619 2.37518 12.4684C2.37518 10.9282 3.21763 9.5811 4.4646 8.86114C4.32729 7.89624 4.21224 7.0835 4.11204 6.40064C1.70716 7.36554 0 9.72212 0 12.4684C0 16.0682 2.93187 19 6.53176 19C9.20013 19 11.4974 17.3931 12.5105 15.0959L11.5568 13.0622Z" fill="black"/>
</svg>
